<svg xmlns="http://www.w3.org/2000/svg" viewBox="26 8 68 68" width="64" height="64"><g fill="none" stroke="#7A5B48" stroke-width="3" stroke-linecap="round" stroke-linejoin="round"><g stroke="none"><ellipse cx="60" cy="110" rx="28" ry="6" fill="#000" opacity=".10"/></g><path d="M84,80 C96,76 96,88 88,88 C84,88 84,83 88,83" fill="none" stroke="#7A5B48" stroke-width="10"/><path d="M84,80 C96,76 96,88 88,88 C84,88 84,83 88,83" fill="none" stroke="#F7B8C4" stroke-width="7"/><ellipse cx="60" cy="86" rx="24" ry="18" fill="#F7B8C4" /><ellipse cx="60" cy="91" rx="14" ry="11" fill="#FFD9E1" stroke="none"/><ellipse cx="47" cy="104" rx="8" ry="5.5" fill="#F7B8C4" /><ellipse cx="73" cy="104" rx="8" ry="5.5" fill="#F7B8C4" /><ellipse cx="60" cy="54" rx="28" ry="25" fill="#F7B8C4" /><path d="M36,36 L30,12 L52,24 Z" fill="#F7B8C4" /><path d="M84,36 L90,12 L68,24 Z" fill="#F7B8C4" /><path d="M39,34 L35,19 L49,26 Z" fill="#F5A0B0" stroke="none"/><path d="M81,34 L85,19 L71,26 Z" fill="#F5A0B0" stroke="none"/><ellipse cx="60" cy="64" rx="13" ry="10" fill="#F09AAE" /><ellipse cx="55" cy="64" rx="2.2" ry="3" fill="#C9758C" stroke="none"/><ellipse cx="65" cy="64" rx="2.2" ry="3" fill="#C9758C" stroke="none"/><g stroke="none"><ellipse cx="50" cy="48" rx="4.51" ry="5.5" fill="#3A2E28"/><ellipse cx="70" cy="48" rx="4.51" ry="5.5" fill="#3A2E28"/><circle cx="51.8" cy="45.8" r="1.76" fill="#fff"/><circle cx="71.8" cy="45.8" r="1.76" fill="#fff"/></g><g stroke="none"><ellipse cx="36" cy="60" rx="7" ry="4.5" fill="#FFA8B8" opacity=".55"/><ellipse cx="84" cy="60" rx="7" ry="4.5" fill="#FFA8B8" opacity=".55"/></g></g></svg>